<svg xmlns="http://www.w3.org/2000/svg" width="48" height="35.987" viewBox="0 0 48 35.987">
  <g>
    <path d="M0,22.5v5.3a4.064,4.064,0,0,0,4.064,4.064H5.711a5.625,5.625,0,1,1,11.25,0H25.43V22.5Z" fill="#2ba0bf"/>
    <path d="M43.936,17.051H40.905l-5.169-11.1A5.124,5.124,0,0,0,31.09,2.986H25.43V31.862h5.9a5.625,5.625,0,0,1,11.25,0h1.355A4.063,4.063,0,0,0,48,27.8V21.115A4.064,4.064,0,0,0,43.936,17.051Z" fill="#59c5ef"/>
    <circle cx="11.336" cy="31.862" r="4.125" fill="#525c6b"/>
    <circle cx="36.956" cy="31.862" r="4.125" fill="#525c6b"/>
    <polygon points="30.52 22.5 29.02 22.5 29.02 20.293 32.861 20.293 32.861 21.793 30.52 21.793 30.52 22.5" fill="#525c6b"/>
    <polygon points="40.905 17.052 29.02 17.052 29.02 6.99 36.221 6.99 40.905 17.052" fill="#e2e2e2"/>
    <circle cx="11.336" cy="31.862" r="1.875" fill="#c6c6c6"/>
    <circle cx="36.956" cy="31.862" r="1.875" fill="#c6c6c6"/>
    <path d="M43.231,23.251V25.03a1.959,1.959,0,0,0,1.959,1.959H48V23.251Z" fill="#ffbd66"/>
    <path d="M14.965,15H10.516a1.5,1.5,0,0,0,1.5-1.5V9a1.5,1.5,0,0,0-1.5-1.5h-4.5A1.5,1.5,0,0,0,4.516,9v4.5a1.5,1.5,0,0,0,1.5,1.5h4.449a1.5,1.5,0,0,0-1.5,1.5V21a1.5,1.5,0,0,0,1.5,1.5h4.5a1.5,1.5,0,0,0,1.5-1.5V16.5A1.5,1.5,0,0,0,14.965,15Z" fill="#f1bb6b"/>
    <g>
      <path d="M6,15H1.5A1.5,1.5,0,0,0,0,16.5V21a1.5,1.5,0,0,0,1.5,1.5H6A1.5,1.5,0,0,0,7.5,21V16.5A1.5,1.5,0,0,0,6,15Z" fill="#e49a61"/>
      <path d="M16.439,6V1.5a1.5,1.5,0,0,0-1.5-1.5h-4.5a1.5,1.5,0,0,0-1.5,1.5V6a1.5,1.5,0,0,0,1.5,1.5h4.5A1.5,1.5,0,0,0,16.439,6Z" fill="#e49a61"/>
      <path d="M23.93,15H19.481a1.5,1.5,0,0,0,1.5-1.5V9a1.5,1.5,0,0,0-1.5-1.5h-4.5a1.5,1.5,0,0,0-1.5,1.5v4.5a1.5,1.5,0,0,0,1.5,1.5H19.43a1.5,1.5,0,0,0-1.5,1.5V21a1.5,1.5,0,0,0,1.5,1.5h4.5a1.5,1.5,0,0,0,1.5-1.5V16.5A1.5,1.5,0,0,0,23.93,15Z" fill="#e49a61"/>
    </g>
    <rect x="43.232" y="21.657" width="4.768" height="1.594" fill="#fddc85"/>
  </g>
</svg>
