<?xml version="1.0" encoding="utf-8"?>
<!-- Generator: Adobe Illustrator 24.0.0, SVG Export Plug-In . SVG Version: 6.00 Build 0)  -->
<svg version="1.1" xmlns="http://www.w3.org/2000/svg" xmlns:xlink="http://www.w3.org/1999/xlink" x="0px" y="0px"
	 viewBox="0 0 64 64" enable-background="new 0 0 64 64" xml:space="preserve">
<g id="Captions">
</g>
<g id="Icons">
	<g>
		<g>
			<path fill="#00A0C8" d="M20,17c-0.553,0-1-0.448-1-1v-5c0-3.86,3.141-7,7-7h8c0.553,0,1,0.448,1,1s-0.447,1-1,1h-8
				c-2.757,0-5,2.243-5,5v5C21,16.552,20.553,17,20,17z"/>
		</g>
		<g>
			<g>
				<g>
					<path fill="#C80A50" d="M21,16h-2c-2.761,0-5,2.239-5,5v12c0,0.552,0.448,1,1,1h10c0.552,0,1-0.448,1-1V21
						C26,18.239,23.761,16,21,16z"/>
				</g>
				<g>
					<path fill="#C80A50" d="M28,44H12V34c0-2.209,1.791-4,4-4h8c2.209,0,4,1.791,4,4V44z"/>
				</g>
				<g>
					<path fill="#A00028" d="M17,35v-5h-1c-2.209,0-4,1.791-4,4v10h9v-1c0-1.657-1.343-3-3-3h-3v-2.171
						C16.165,37.417,17,36.306,17,35z"/>
				</g>
				<g>
					<path fill="#00A0C8" d="M16,30c0,2.209,1.791,4,4,4s4-1.791,4-4H16z"/>
				</g>
				<g>
					<path fill="#0082AA" d="M17,32.645V30h-1C16,31.014,16.378,31.94,17,32.645z"/>
				</g>
				<g>
					<path fill="#D2AA82" d="M20,32L20,32c-1.105,0-2-0.895-2-2v-3h4v3C22,31.105,21.105,32,20,32z"/>
				</g>
				<g>
					<path fill="#F0C8A0" d="M21,28h-2c-1.657,0-3-1.343-3-3v-3c0-1.105,0.895-2,2-2h1v0c0,1.105,0.895,2,2,2h3v3
						C24,26.657,22.657,28,21,28z"/>
				</g>
			</g>
			<g>
				<g>
					<path fill="#FAB400" d="M20,52H4v-9c0-1.657,1.343-3,3-3h10c1.657,0,3,1.343,3,3V52z"/>
				</g>
				<g>
					<path fill="#00A0C8" d="M8,40c0,2.209,1.791,4,4,4s4-1.791,4-4H8z"/>
				</g>
				<g>
					<path fill="#D2AA82" d="M12,42L12,42c-1.105,0-2-0.895-2-2v-3h4v3C14,41.105,13.105,42,12,42z"/>
				</g>
				<g>
					<path fill="#F0C8A0" d="M13,38h-2c-1.657,0-3-1.343-3-3v-3c0-1.105,0.895-2,2-2h4c1.105,0,2,0.895,2,2v3
						C16,36.657,14.657,38,13,38z"/>
				</g>
				<g>
					<path fill="#0A5078" d="M14,30h-4c-1.105,0-2,0.895-2,2v0v-2c0-1.105,0.895-2,2-2h4c1.105,0,2,0.895,2,2v2v0
						C16,30.895,15.105,30,14,30z"/>
				</g>
			</g>
			<g>
				<g>
					<path fill="#00A0C8" d="M36,52H20v-9c0-1.657,1.343-3,3-3h10c1.657,0,3,1.343,3,3V52z"/>
				</g>
				<g>
					<path fill="#0A5078" d="M24,40c0,2.209,1.791,4,4,4s4-1.791,4-4H24z"/>
				</g>
				<g>
					<path fill="#0082AA" d="M20.5,41.342C20.184,41.817,20,42.387,20,43v9h1v-9C21,42.387,20.816,41.817,20.5,41.342z"/>
				</g>
				<g>
					<path fill="#D2AA82" d="M28,42L28,42c-1.105,0-2-0.895-2-2v-3h4v3C30,41.105,29.105,42,28,42z"/>
				</g>
				<g>
					<path fill="#F0C8A0" d="M29,38h-2c-1.657,0-3-1.343-3-3v-3c0-1.105,0.895-2,2-2h4c1.105,0,2,0.895,2,2v3
						C32,36.657,30.657,38,29,38z"/>
				</g>
				<g>
					<path fill="#DC9600" d="M30,30h-4c-1.105,0-2,0.895-2,2v0v-2c0-1.105,0.895-2,2-2h4c1.105,0,2,0.895,2,2v2v0
						C32,30.895,31.105,30,30,30z"/>
				</g>
			</g>
		</g>
		<g>
			<path fill="#0A5078" d="M59.414,26.586l-8-8C51.052,18.224,50.552,18,50,18c-0.552,0-1.052,0.224-1.414,0.586l-8,8
				C40.224,26.948,40,27.448,40,28v30c0,1.105,0.895,2,2,2h16c1.105,0,2-0.895,2-2V28C60,27.448,59.776,26.948,59.414,26.586z"/>
		</g>
		<g>
			<path fill="#00325A" d="M49,23c0.553,0,1-0.448,1-1v-4c-0.552,0-1.052,0.224-1.414,0.586L48,19.172V22C48,22.552,48.447,23,49,23
				z"/>
		</g>
		<g>
			<path fill="#00A0C8" d="M50,23c-0.553,0-1-0.448-1-1V11c0-2.757-2.243-5-5-5H34c-0.553,0-1-0.448-1-1s0.447-1,1-1h10
				c3.859,0,7,3.14,7,7v11C51,22.552,50.553,23,50,23z"/>
		</g>
		<g>
			<rect x="19" y="15" fill="#0082AA" width="2" height="1"/>
		</g>
		<g>
			<g>
				<path fill="#00325A" d="M51,31h-2c-0.553,0-1-0.448-1-1s0.447-1,1-1h2c0.553,0,1,0.448,1,1S51.553,31,51,31z"/>
			</g>
			<g>
				<path fill="#00325A" d="M51,55h-2c-0.553,0-1-0.448-1-1s0.447-1,1-1h2c0.553,0,1,0.448,1,1S51.553,55,51,55z"/>
			</g>
		</g>
		<g>
			<g>
				<circle fill="#FAB400" cx="46.5" cy="38.5" r="1.5"/>
			</g>
			<g>
				<circle fill="#FAB400" cx="53.5" cy="45.5" r="1.5"/>
			</g>
			<g>
				<path fill="#FAB400" d="M46,47c-0.256,0-0.512-0.098-0.707-0.293c-0.391-0.391-0.391-1.023,0-1.414l8-8
					c0.391-0.391,1.023-0.391,1.414,0s0.391,1.023,0,1.414l-8,8C46.512,46.902,46.256,47,46,47z"/>
			</g>
		</g>
	</g>
</g>
</svg>
